<?xml version="1.0" encoding="UTF-8" standalone="no"?>
<!-- Created with Inkscape (http://www.inkscape.org/) -->

<svg
   xmlns:dc="http://purl.org/dc/elements/1.1/"
   xmlns:cc="http://creativecommons.org/ns#"
   xmlns:rdf="http://www.w3.org/1999/02/22-rdf-syntax-ns#"
   xmlns:svg="http://www.w3.org/2000/svg"
   xmlns="http://www.w3.org/2000/svg"
   xmlns:sodipodi="http://sodipodi.sourceforge.net/DTD/sodipodi-0.dtd"
   xmlns:inkscape="http://www.inkscape.org/namespaces/inkscape"
   id="svg3390"
   version="1.1"
   inkscape:version="0.91 r13725"
   width="535.72809"
   height="557.61108"
   viewBox="0 0 535.72809 557.61108"
   sodipodi:docname="binary_stars.svg">
  <metadata
     id="metadata3396">
    <rdf:RDF>
      <cc:Work
         rdf:about="">
        <dc:format>image/svg+xml</dc:format>
        <dc:type
           rdf:resource="http://purl.org/dc/dcmitype/StillImage" />
        <dc:title></dc:title>
      </cc:Work>
    </rdf:RDF>
  </metadata>
  <defs
     id="defs3394" />
  <sodipodi:namedview
     pagecolor="#ffffff"
     bordercolor="#666666"
     borderopacity="1"
     objecttolerance="10"
     gridtolerance="10"
     guidetolerance="10"
     inkscape:pageopacity="0"
     inkscape:pageshadow="2"
     inkscape:window-width="1195"
     inkscape:window-height="825"
     id="namedview3392"
     showgrid="false"
     inkscape:zoom="1.5744523"
     inkscape:cx="258.09568"
     inkscape:cy="310.33705"
     inkscape:window-x="0"
     inkscape:window-y="0"
     inkscape:window-maximized="0"
     inkscape:current-layer="svg3390"
     fit-margin-top="0"
     fit-margin-left="0"
     fit-margin-right="0"
     fit-margin-bottom="0" />
  <path
     style="fill:#000000"
     d="M 29.053829,555.45447 C 1.6162199,547.0288 -6.5793929,520.86467 5.2826974,479.56621 9.7296583,464.0839 22.270259,437.12659 32.321221,421.44411 c 2.932362,-4.57535 5.893179,-9.28727 6.579594,-10.47094 3.299306,-5.6894 12.358843,-18.26858 31.205975,-43.32955 3.250209,-4.32178 22.027592,-26.31747 30.53487,-35.76832 19.80626,-22.00301 52.08843,-53.17848 76.38218,-73.76361 9.54551,-8.08833 15.44602,-14.12173 17.5629,-17.95847 3.05536,-5.53771 15.1326,-23.59938 20.1597,-30.14912 35.87788,-46.74476 71.88055,-83.97384 111.57359,-115.374255 4.16835,-3.297502 8.70381,-6.932371 10.07881,-8.077487 10.45608,-8.707939 35.93074,-26.72791 54.375,-38.463163 7.90625,-5.030389 16.34375,-10.407175 18.75,-11.948415 2.40625,-1.541239 13.375,-7.391272 24.375,-13.000075 85.1579,-43.42126 123.69525,-24.1679429 89.28705,44.607946 -4.77634,9.547058 -15.5859,27.499747 -20.1718,33.501649 -1.31325,1.71875 -6.1105,8.1875 -10.66053,14.375 -7.51817,10.2238 -14.16216,18.1721 -30.29332,36.24031 -3.07373,3.44283 -14.46435,15.07843 -25.3125,25.85689 -19.7239,19.59721 -19.7239,19.59721 -19.75095,26.25 -0.0893,21.94932 -18.87333,71.29706 -37.50433,98.5278 -1.17595,1.71875 -5.4157,8.1875 -9.42167,14.375 -9.57656,14.79168 -33.45676,46.34025 -39.26596,51.875 -0.36079,0.34375 -5.09424,5.6875 -10.51875,11.875 -14.71832,16.78849 -52.99284,54.16015 -70.90489,69.23228 -11.52651,9.75622 -40.51402,32.44688 -45.47467,36.15153 -5.49638,4.00396 -40.72006,27.72623 -55.00768,35.77953 -51.023589,28.75972 -95.309827,41.20024 -119.845011,33.66583 z m 87.603461,-63.67225 c 28.81456,-5.95181 71.22759,-25.67148 103.88366,-48.30007 24.41578,-16.91859 34.52165,-24.60176 56.3598,-42.84861 62.7428,-52.42468 117.84064,-128.3764 130.71469,-180.18866 2.80074,-11.27168 4.87627,-19.32828 -1.17068,-14.26888 -1.60317,1.34135 -36.14841,30.92588 -43.56131,36.3243 -3.30416,2.40625 -8.64615,6.37663 -11.87108,8.82305 -3.22494,2.44643 -9.51978,6.9042 -13.98853,9.90618 -4.46875,3.00197 -8.40625,5.78159 -8.75,6.17696 -0.34375,0.39535 -1.75,1.38519 -3.125,2.19964 -18.10704,10.72532 -23.14087,14.61302 -22.20951,17.15271 0.52772,1.43905 0.92244,6.83709 0.87712,11.99564 -0.25816,29.39303 -29.70395,50.47717 -57.05058,38.70506 -8.14043,-3.50427 -10.96972,-5.82408 -20.04375,-15.25601 -3.483,-3.62038 -3.59748,-3.84028 -9.2303,-2.55131 -13.0833,2.99388 -29.55217,0.16684 -36.54952,-6.27408 -7.90711,-7.27834 -8.91508,-23.23453 -2.51598,-39.82793 2.11455,-5.48321 3.54635,-10.26775 3.18178,-10.63231 -0.92353,-0.92355 -38.24973,36.42254 -50.80531,50.8324 -10.67778,12.25472 -34.24762,42.71662 -38.460672,49.84875 -4.607106,6.277 -6.124195,9.41086 -8.986853,14.24189 -45.966684,75.6627 -30.902767,127.20315 33.302025,113.94128 z M 220.3251,287.68929 c 6.78,-30.5316 46.37636,-42.65108 69.70093,-21.33374 7.88013,7.202 7.83262,7.19439 16.1793,2.59103 25.83172,-14.24674 62.35183,-39.82817 90.39766,-63.32128 13.02887,-10.91389 12.90806,-10.73661 11.54231,-16.93711 -4.66831,-21.1941 -31.42736,-32.10297 -60.49646,-24.6626 -6.25,1.59971 -6.25,1.59971 -6.9561,7.75026 -1.62303,14.13745 -20.45549,20.96841 -31.23149,10.2386 -4.83292,-4.8122 -4.24055,-3.26415 -7.09925,-2.94658 -4.06029,0.45106 -51.74672,28.03851 -64.08816,37.40584 -1.71875,1.30455 -6.78125,5.0222 -11.25,8.26143 -12.04604,8.06673 -14.92308,10.89691 -20.37868,21.51516 -10.65246,20.63436 -7.69717,43.32249 6.18187,47.45889 5.29182,1.57712 5.92368,1.06983 7.49807,-6.0199 z m 12.328,-72.24405 c 10.7898,-7.44327 16.60551,-11.16543 20.69354,-13.61038 3.66924,-2.19449 9.0522,-5.15351 11.8022,-6.91834 2.75,-1.76482 10.16532,-5.39386 16.25,-8.75 5.74589,-2.94782 11.96769,-6.53367 17.1875,-8.9585 4.41579,-2.04165 5.24325,-1.34691 4.6875,-7.87457 0,-19.60309 25.58222,-27.2476 35.42467,-10.58566 1.47024,2.48891 3.01796,3.66222 4.36424,3.30847 32.91787,-8.64931 58.65054,-1.74439 68.92319,18.49436 4.15926,8.19442 4.15926,8.19442 10.53609,2.37678 C 487.76586,123.40476 534.6293,51.994846 527.01211,23.706743 518.07214,-9.4937937 457.15246,6.5176336 375.14135,63.622714 c -15.2147,10.594134 -48.06466,35.751966 -50.61751,38.764936 -0.34375,0.40571 -5.67461,5.23765 -11.84638,10.73765 -19.7218,17.57521 -43.18882,41.83564 -59.24692,61.25 -12.52653,15.14466 -12.36809,14.94118 -17.0317,21.87517 -2.0625,3.0666 -4.75498,6.75935 -5.98329,8.20613 -4.21749,4.96762 -13.59583,20.8895 -11.92724,20.2492 0.91798,-0.35226 7.29214,-4.51951 14.16479,-9.26056 z"
     id="path3477"
     inkscape:connector-curvature="0"
     sodipodi:nodetypes="csssssssssssssssssssssssccsccsssssssscsssssssscsccsssssssssssccsssssccsssssssssssss" />
</svg>
